<svg width="279.99999999999994" height="280.6645815710643" viewBox="0 0 279.99999999999994 280.6645815710643" class="css-1j8o68f">
    <defs id="SvgjsDefs1323"></defs>
    <g id="SvgjsG1324" featurekey="rootContainer" transform="matrix(5.770846048729156,0,0,5.770846048729156,-0.08729049006259137,0.48979541329416293)" fill="#111111">
        <path xmlns="http://www.w3.org/2000/svg" d="M24.28 48.55a4.28 4.28 0 0 1-3.1-1.31 1.06 1.06 0 0 0-.71-.23.8.8 0 0 0-.35.07 4.33 4.33 0 0 1-2 .5 4.28 4.28 0 0 1-3.87-2.42 1.13 1.13 0 0 0-.88-.49h-.07a4.33 4.33 0 0 1-.75.06 4.27 4.27 0 0 1-4.26-3.7 1.11 1.11 0 0 0-.76-.76 4.3 4.3 0 0 1-3.64-5 1.1 1.1 0 0 0-.48-1 4.3 4.3 0 0 1-1.91-5.89 1.1 1.1 0 0 0-.17-1.06, 4.3 4.3 0 0 1 0-6.19 1.1 1.1 0 0 0 .17-1.05 4.3 4.3 0 0 1 1.91-5.89 1.1 1.1 0 0 0 .48-1 4.3 4.3 0 0 1 3.64-5 1.11 1.11 0 0 0 .76-.76 4.27 4.27 0 0 1 4.26-3.7 4.36 4.36 0 0 1 .75.07h.07a1.13 1.13 0 0 0 .88-.49A4.28 4.28 0 0 1 18.12.89a4.33 4.33 0 0 1 2 .5.8.8 0 0 0 .35.07 1.06 1.06 0 0 0 .71-.23 4.3 4.3 0 0 1 6.19 0 1.06 1.06 0 0 0 .71.23.8.8 0 0 0 .35-.07 4.33 4.33 0 0 1 2-.5 4.28 4.28 0 0 1 3.87 2.42 1.13 1.13 0 0 0 .88.49h.07a4.3 4.3 0 0 1 5 3.64 1.11 1.11 0 0 0 .76.76 4.3 4.3 0 0 1 3.64 5 1.11 1.11 0 0 0 .49 1 4.3 4.3 0 0 1 1.91 5.89 1.1 1.1 0 0 0 .17 1.06 4.3 4.3 0 0 1 0 6.19 1.1 1.1 0 0 0-.17 1.05 4.3 4.3 0 0 1-1.91 5.89 1.1 1.1 0 0 0-.49 1 4.3 4.3 0 0 1-3.64 5 1.11 1.11 0 0 0-.76.76 4.27 4.27 0 0 1-4.26 3.7 4.36 4.36 0 0 1-.75-.07h-.09a1.13 1.13 0 0 0-.88.49 4.28 4.28 0 0 1-3.87 2.42 4.34 4.34 0 0 1-2-.5.8.8 0 0 0-.35-.07 1.06 1.06 0 0 0-.71.23 4.28 4.28 0 0 1-3.06 1.31zm-3.8-1.77a1.26 1.26 0 0 1 .87.3 4.08 4.08 0 0 0 5.87 0 1.26 1.26 0 0 1 .87-.3 1 1 0 0 1 .45.09 4.12 4.12 0 0 0 1.92.48 4.06 4.06 0 0 0 3.67-2.29 1.35 1.35 0 0 1 1.08-.61h.11a4.18 4.18 0 0 0 .71.06 4.05 4.05 0 0 0 4-3.51 1.31 1.31 0 0 1 .94-.94 4.08 4.08 0 0 0 3.45-4.75 1.31 1.31 0 0 1 .61-1.19 4.08 4.08 0 0 0 1.82-5.59 1.31 1.31 0 0 1 .21-1.32 4.08 4.08 0 0 0 0-5.87 1.31 1.31 0 0 1-.21-1.32 4.08 4.08 0 0 0-1.82-5.59 1.31 1.31 0 0 1-.61-1.19 4.08 4.08 0 0 0-3.45-4.75 1.31 1.31 0 0 1-.94-.94 4.05 4.05 0 0 0-4-3.51 4.12 4.12 0 0 0-.71.06h-.17a1.35 1.35 0 0 1-1.08-.61A4.06 4.06 0 0 0 30.4 1.2a4.11 4.11 0 0 0-1.92.48 1 1 0 0 1-.45.09 1.27 1.27 0 0 1-.87-.3 4.08 4.08 0 0 0-5.87 0 1.27 1.27 0 0 1-.87.3 1 1 0 0 1-.45-.09 4.12 4.12 0 0 0-1.92-.48 4.06 4.06 0 0 0-3.67 2.29 1.35 1.35 0 0 1-1.08.61h-.05a4.14 4.14 0 0 0-.71-.06 4.05 4.05 0 0 0-4 3.51 1.31 1.31 0 0 1-.94.94 4.08 4.08 0 0 0-3.45 4.75 1.31 1.31 0 0 1-.6 1.19 4.08 4.08 0 0 0-1.82 5.59 1.31 1.31 0 0 1-.21 1.32 4.08 4.08 0 0 0 0 5.87 1.31 1.31 0 0 1 .21 1.32 4.08 4.08 0 0 0 1.82 5.59 1.31 1.31 0 0 1 .61 1.19 4.08 4.08 0 0 0 3.45 4.75 1.31 1.31 0 0 1 .94.94 4.05 4.05 0 0 0 4 3.51 4.13 4.13 0 0 0 .71-.06h.11a1.35 1.35 0 0 1 1.08.61 4.06 4.06 0 0 0 3.67 2.29 4.11 4.11 0 0 0 1.92-.48 1 1 0 0 1 .43-.09z"></path>
        <path xmlns="http://www.w3.org/2000/svg" d="M24.28 47.55a3.28 3.28 0 0 1-2.37-1 2 2 0 0 0-1.43-.54 1.75 1.75 0 0 0-.82.18 3.33 3.33 0 0 1-1.55.39 3.28 3.28 0 0 1-3-1.85 2.08 2.08 0 0 0-2-1 3.31 3.31 0 0 1-.58.05 3.28 3.28 0 0 1-3.26-2.84 2.07 2.07 0 0 0-1.61-1.61 3.3 3.3 0 0 1-2.79-3.84 2.06 2.06 0 0 0-1-2 3.3 3.3 0 0 1-1.47-4.52 2.07 2.07 0 0 0-.36-2.25 3.3 3.3 0 0 1 0-4.75 2.07 2.07 0 0 0 .36-2.25 3.3 3.3 0 0 1 1.47-4.52 2.06 2.06 0 0 0 1-2 3.3 3.3 0 0 1 2.79-3.84 2.07 2.07 0 0 0 1.61-1.61 3.28 3.28 0 0 1 3.26-2.84 3.33 3.33 0 0 1 .58.05h.24a2.11 2.11 0 0 0 1.78-1.05 3.28 3.28 0 0 1 3-1.85 3.33 3.33 0 0 1 1.55.39 1.76 1.76 0 0 0 .82.18 2 2 0 0 0 1.43-.54 3.3 3.3 0 0 1 4.75 0 2 2 0 0 0 1.43.54 1.76 1.76 0 0 0 .82-.18 3.32 3.32 0 0 1 1.55-.39 3.28 3.28 0 0 1 3 1.85 2.11 2.11 0 0 0 1.78 1.05h.24a3.3 3.3 0 0 1 3.84 2.79 2.07 2.07 0 0 0 1.61 1.61 3.3 3.3 0 0 1 2.79 3.84 2.07 2.07 0 0 0 1 2 3.3 3.3 0 0 1 1.41 4.47 2.07 2.07 0 0 0 .36 2.25 3.3 3.3 0 0 1 0 4.75 2.06 2.06 0 0 0-.36 2.25 3.3 3.3 0 0 1-1.47 4.52 2.07 2.07 0 0 0-1 2 3.3 3.3 0 0 1-2.79 3.84 2.07 2.07 0 0 0-1.61 1.61 3.28 3.28 0 0 1-3.26 2.84 3.32 3.32 0 0 1-.58-.05 2.08 2.08 0 0 0-2 1 3.28 3.28 0 0 1-3 1.85 3.33 3.33 0 0 1-1.55-.39 1.76 1.76 0 0 0-.82-.18 2 2 0 0 0-1.43.54 3.28 3.28 0 0 1-2.36 1.05zm-3.8-1.77a2.27 2.27 0 0 1 1.59.61 3.07 3.07 0 0 0 4.43 0 2.26 2.26 0 0 1 1.59-.61 2 2 0 0 1 .92.21 3.1 3.1 0 0 0 1.45.36 3.06 3.06 0 0 0 2.76-1.73 2.31 2.31 0 0 1 2.26-1.15 3.16 3.16 0 0 0 .54 0 3.06 3.06 0 0 0 3-2.65 2.31 2.31 0 0 1 1.8-1.8 3.07 3.07 0 0 0 2.6-3.58 2.31 2.31 0 0 1 1.15-2.26 3.07 3.07 0 0 0 1.37-4.21 2.31 2.31 0 0 1 .4-2.51 3.08 3.08 0 0 0 0-4.43 2.31 2.31 0 0 1-.4-2.51 3.07 3.07 0 0 0-1.37-4.21 2.31 2.31 0 0 1-1.15-2.26 3.08 3.08 0 0 0-2.6-3.58 2.31 2.31 0 0 1-1.8-1.8 3.06 3.06 0 0 0-3-2.65 3.14 3.14 0 0 0-.54 0h-.28a2.35 2.35 0 0 1-2-1.18 3.06 3.06 0 0 0-2.76-1.73 3.1 3.1 0 0 0-1.45.36 2 2 0 0 1-.92.21 2.27 2.27 0 0 1-1.59-.61 3.07 3.07 0 0 0-4.43 0 2.27 2.27 0 0 1-1.59.61 2 2 0 0 1-.92-.21 3.1 3.1 0 0 0-1.45-.36 3.06 3.06 0 0 0-2.77 1.73 2.35 2.35 0 0 1-2 1.18h-.28a3.15 3.15 0 0 0-.54 0 3.06 3.06 0 0 0-3 2.65 2.31 2.31 0 0 1-1.8 1.8 3.07 3.07 0 0 0-2.6 3.58 2.31 2.31 0 0 1-1.15 2.26 3.07 3.07 0 0 0-1.37 4.21 2.31 2.31 0 0 1-.4 2.51 3.07 3.07 0 0 0 0 4.43 2.31 2.31 0 0 1 .4 2.51 3.08 3.08 0 0 0 1.37 4.21 2.31 2.31 0 0 1 1.15 2.26 3.07 3.07 0 0 0 2.6 3.58 2.31 2.31 0 0 1 1.8 1.8 3.06 3.06 0 0 0 3 2.65 3.14 3.14 0 0 0 .54 0 2.3 2.3 0 0 1 2.26 1.15 3.06 3.06 0 0 0 2.76 1.73 3.1 3.1 0 0 0 1.45-.36 2 2 0 0 1 .96-.21z"></path>
        <path xmlns="http://www.w3.org/2000/svg" d="M24.28 46.54a2.28 2.28 0 0 1-1.65-.7 3 3 0 0 0-2.15-.84 2.76 2.76 0 0 0-1.29.3 2.32 2.32 0 0 1-1.08.27 2.28 2.28 0 0 1-2.06-1.29 3.1 3.1 0 0 0-2.69-1.62 2.44 2.44 0 0 0-.42 0 2.36 2.36 0 0 1-.4 0 2.28 2.28 0 0 1-2.27-2 3.07 3.07 0 0 0-2.46-2.46 2.29 2.29 0 0 1-1.94-2.67 3.07 3.07 0 0 0-1.58-3.1 2.29 2.29 0 0 1-1-3.14 3.07 3.07 0 0 0-.54-3.44 2.29 2.29 0 0 1 0-3.3 3.07 3.07 0 0 0 .54-3.44 2.29 2.29 0 0 1 1-3.14 3.07 3.07 0 0 0 1.58-3.1 2.29 2.29 0 0 1 1.94-2.67 3.07 3.07 0 0 0 2.46-2.46 2.28 2.28 0 0 1 2.27-2 2.36 2.36 0 0 1 .4 0 2.43 2.43 0 0 0 .42 0 3.1 3.1 0 0 0 2.69-1.62 2.28 2.28 0 0 1 2.06-1.29 2.32 2.32 0 0 1 1.08.27 2.76 2.76 0 0 0 1.29.3 3 3 0 0 0 2.15-.84 2.29 2.29 0 0 1 3.3 0 3 3 0 0 0 2.15.84 2.76 2.76 0 0 0 1.29-.3 2.32 2.32 0 0 1 1.08-.27 2.28 2.28 0 0 1 2.06 1.29 3.1 3.1 0 0 0 2.69 1.62 2.43 2.43 0 0 0 .42 0 2.36 2.36 0 0 1 .4 0 2.28 2.28 0 0 1 2.27 2 3.07 3.07 0 0 0 2.46 2.46 2.29 2.29 0 0 1 1.94 2.67 3.07 3.07 0 0 0 1.58 3.1 2.29 2.29 0 0 1 1 3.14 3.07 3.07 0 0 0 .54 3.44 2.29 2.29 0 0 1 0 3.3 3.07 3.07 0 0 0-.54 3.44 2.29 2.29 0 0 1-1 3.14 3.07 3.07 0 0 0-1.58 3.1 2.29 2.29 0 0 1-1.94 2.67 3.07 3.07 0 0 0-2.46 2.46 2.28 2.28 0 0 1-2.27 2 2.36 2.36 0 0 1-.4 0 2.44 2.44 0 0 0-.42 0 3.1 3.1 0 0 0-2.69 1.62 2.28 2.28 0 0 1-2.06 1.29 2.32 2.32 0 0 1-1.08-.27 2.76 2.76 0 0 0-1.29-.3 3 3 0 0 0-2.15.84 2.28 2.28 0 0 1-1.65.7zm-3.8-1.77a3.25 3.25 0 0 1 2.31.91 2.07 2.07 0 0 0 3 0 3.25 3.25 0 0 1 2.31-.91 3 3 0 0 1 1.39.33 2.07 2.07 0 0 0 2.84-.92 3.34 3.34 0 0 1 2.88-1.74 2.62 2.62 0 0 1 .46 0 2.13 2.13 0 0 0 .37 0 2.06 2.06 0 0 0 2.05-1.79A3.31 3.31 0 0 1 40.74 38a2.07 2.07 0 0 0 1.76-2.42 3.31 3.31 0 0 1 1.7-3.34 2.07 2.07 0 0 0 .92-2.84 3.31 3.31 0 0 1 .59-3.7 2.07 2.07 0 0 0 0-3 3.31 3.31 0 0 1-.59-3.7 2.07 2.07 0 0 0-.92-2.84 3.31 3.31 0 0 1-1.7-3.34 2.07 2.07 0 0 0-1.76-2.42 3.31 3.31 0 0 1-2.65-2.65 2.06 2.06 0 0 0-2-1.79 2.14 2.14 0 0 0-.37 0 2.66 2.66 0 0 1-.45 0 3.34 3.34 0 0 1-2.89-1.74 2.06 2.06 0 0 0-1.86-1.17 2.1 2.1 0 0 0-1 .24 3 3 0 0 1-1.39.33 3.25 3.25 0 0 1-2.31-.91 2.07 2.07 0 0 0-3 0 3.25 3.25 0 0 1-2.31.91 3 3 0 0 1-1.39-.33 2.07 2.07 0 0 0-2.84.92 3.34 3.34 0 0 1-2.89 1.74 2.66 2.66 0 0 1-.45 0 2.14 2.14 0 0 0-.37 0 2.06 2.06 0 0 0-2 1.79 3.31 3.31 0 0 1-2.65 2.65 2.07 2.07 0 0 0-1.76 2.42 3.31 3.31 0 0 1-1.7 3.34 2.07 2.07 0 0 0-.92 2.84 3.31 3.31 0 0 1-.59 3.7 2.07 2.07 0 0 0 0 3 3.31 3.31 0 0 1 .59 3.7 2.07 2.07 0 0 0 .92 2.84 3.31 3.31 0 0 1 1.7 3.34 2.07 2.07 0 0 0 1.76 2.42 3.31 3.31 0 0 1 2.65 2.65 2.06 2.06 0 0 0 2.05 1.79 2.13 2.13 0 0 0 .37 0 2.62 2.62 0 0 1 .45 0 3.34 3.34 0 0 1 2.88 1.74 2.06 2.06 0 0 0 1.86 1.17 2.1 2.1 0 0 0 1-.24 3 3 0 0 1 1.29-.33z"></path>
        <path xmlns="http://www.w3.org/2000/svg" d="M24.28 45.54a1.29 1.29 0 0 1-.93-.4 4 4 0 0 0-2.87-1.15 3.76 3.76 0 0 0-1.76.42 1.29 1.29 0 0 1-1.77-.57 4.1 4.1 0 0 0-3.59-2.18 3.41 3.41 0 0 0-.59.05 1.28 1.28 0 0 1-1.51-1.09 4.08 4.08 0 0 0-3.32-3.32 1.29 1.29 0 0 1-1.09-1.51 4.08 4.08 0 0 0-2.13-4.18 1.29 1.29 0 0 1-.58-1.77 4.08 4.08 0 0 0-.73-4.63 1.29 1.29 0 0 1 0-1.86 4.08 4.08 0 0 0 .74-4.68 1.29 1.29 0 0 1 .58-1.77 4.08 4.08 0 0 0 2.13-4.18 1.29 1.29 0 0 1 1.09-1.51 4.08 4.08 0 0 0 3.32-3.32 1.28 1.28 0 0 1 1.51-1.09 3.42 3.42 0 0 0 .59.05 4.1 4.1 0 0 0 3.59-2.18 1.29 1.29 0 0 1 1.77-.57 3.76 3.76 0 0 0 1.76.42 4.05 4.05 0 0 0 2.87-1.15 1.29 1.29 0 0 1 1.86 0 4 4 0 0 0 2.87 1.15 3.76 3.76 0 0 0 1.76-.42 1.29 1.29 0 0 1 1.77.58 4.1 4.1 0 0 0 3.59 2.18 3.41 3.41 0 0 0 .59-.05 1.28 1.28 0 0 1 1.51 1.09 4.08 4.08 0 0 0 3.32 3.32 1.29 1.29 0 0 1 1.09 1.51 4.08 4.08 0 0 0 2.13 4.18 1.29 1.29 0 0 1 .58 1.77 4.08 4.08 0 0 0 .73 4.63 1.29 1.29 0 0 1 0 1.86 4.08 4.08 0 0 0-.73 4.63 1.29 1.29 0 0 1-.58 1.77 4.08 4.08 0 0 0-2.13 4.18 1.29 1.29 0 0 1-1.09 1.51 4.08 4.08 0 0 0-3.32 3.32 1.28 1.28 0 0 1-1.51 1.09 3.42 3.42 0 0 0-.65 0 4.1 4.1 0 0 0-3.59 2.18 1.28 1.28 0 0 1-1.16.73 1.3 1.3 0 0 1-.61-.15 3.76 3.76 0 0 0-1.76-.42 4 4 0 0 0-2.87 1.15 1.29 1.29 0 0 1-.88.38zm-3.8-1.77a4.27 4.27 0 0 1 3 1.22 1.07 1.07 0 0 0 1.54 0 4.28 4.28 0 0 1 3-1.22 4 4 0 0 1 1.86.44 1.08 1.08 0 0 0 .51.13 1.06 1.06 0 0 0 1-.6 4.33 4.33 0 0 1 3.79-2.3 3.64 3.64 0 0 1 .63.05H36a1.06 1.06 0 0 0 1.06-.92 4.31 4.31 0 0 1 3.5-3.5 1.07 1.07 0 0 0 .91-1.25 4.31 4.31 0 0 1 2.25-4.41 1.06 1.06 0 0 0 .48-1.47 4.31 4.31 0 0 1 .77-4.89 1.07 1.07 0 0 0 0-1.54 4.31 4.31 0 0 1-.77-4.89 1.06 1.06 0 0 0-.48-1.47 4.31 4.31 0 0 1-2.25-4.42 1.07 1.07 0 0 0-.91-1.25 4.31 4.31 0 0 1-3.5-3.5 1.07 1.07 0 0 0-1.25-.91 3.62 3.62 0 0 1-.63.05 4.33 4.33 0 0 1-3.79-2.3 1.06 1.06 0 0 0-1-.61 1.08 1.08 0 0 0-.51.13 4 4 0 0 1-1.86.44 4.27 4.27 0 0 1-3-1.22 1.07 1.07 0 0 0-1.54 0 4.28 4.28 0 0 1-3 1.22 4 4 0 0 1-1.86-.44 1.08 1.08 0 0 0-.51-.13 1.07 1.07 0 0 0-1 .6 4.33 4.33 0 0 1-3.79 2.3 3.64 3.64 0 0 1-.63-.05h-.19a1.06 1.06 0 0 0-1.06.92 4.31 4.31 0 0 1-3.5 3.5 1.07 1.07 0 0 0-.91 1.25 4.31 4.31 0 0 1-2.25 4.42 1.07 1.07 0 0 0-.48 1.47 4.31 4.31 0 0 1-.78 4.89 1.07 1.07 0 0 0 0 1.54 4.31 4.31 0 0 1 .78 4.89 1.07 1.07 0 0 0 .48 1.47 4.31 4.31 0 0 1 2.25 4.41 1.07 1.07 0 0 0 .91 1.25 4.31 4.31 0 0 1 3.5 3.5 1.06 1.06 0 0 0 1.06.92h.19a3.64 3.64 0 0 1 .63-.05 4.33 4.33 0 0 1 3.79 2.3 1.07 1.07 0 0 0 1.47.48 4 4 0 0 1 1.89-.45z"></path>
    </g>
    <g id="SvgjsG1325" featurekey="symbolFeature-0" transform="matrix(0.5710344827586207,0,0,0.5710344827586207,111.72375454606681,82)" fill="#111111">
        <g xmlns="http://www.w3.org/2000/svg">
            <g>
                <path d="M37,50c-1.048,7.799,3.27,10.057,3.27,19.602c0,25.398-40.086,30.333,9.642,30.396V100c0.083,0,0.161-0.001,0.245-0.001    S50.317,100,50.402,100v-0.002c18.305-0.023,24.432-1.323,24.877-3.995C51,81,45,67.179,37,50z"></path>
            </g>
            <path d="M38.275,41.361C34,51,57,86,75,94c-4.397-4.956-14.957-15.013-14.957-24.398c0-12.317,10.133-12.792,1.993-28.24   c-8.139-15.448-1.162-19.435,1.993-22.757C67.187,15.282,62.701,9.801,60.376,0l-2.295,2.987c0.592,3.58-0.948,7.395-2.531,7.395   c-4.484,0-5.481,3.571-5.481,3.571s-1.495-3.571-5.316-3.571c-1.618,0-3.335-3.991-2.709-7.642L39.938,0   c-2.325,9.801-6.811,15.282-3.655,18.604C39.438,21.927,45.355,25.398,38.275,41.361z"></path>
        </g>
    </g>
    <g id="SvgjsG1326" featurekey="nameFeature-0" transform="matrix(0.5780629282041538,0,0,0.5780629282041538,42.38076415692306,162.4054477001941)" fill="#111111">
        <path d="M53.668 16.241 c-0.095428 0.98296 -1.0261 1.0456 -1.7836 0.64624 c-3.5685 -1.8787 -7.5536 -2.2645 -11.518 -2.5215 c-3.9013 -0.25328 -7.8136 -0.34344 -11.722 -0.27328 c-0.068516 0.0012109 -0.13664 0.0048828 -0.20516 0.0060936 c-0.36992 0.81576 -0.7354 1.6335 -1.0968 2.4533 c-0.008164 0.02 -0.014297 0.0416 -0.023672 0.061172 c-0.011836 0.025274 -0.024492 0.050156 -0.036328 0.075428 c-5.474 12.445 -9.8568 25.413 -9.6348 39.145 c0.034688 2.1674 -3.6109 -0.28144 -3.6361 -1.8428 c-0.10726 -6.6272 0.8288 -13.074 2.4305 -19.371 c-1.4888 1.7669 -3.0982 3.4135 -4.8552 4.8888 c-2.7222 2.2849 -6.1908 4.4384 -9.8788 4.3824 c-2.3538 -0.035898 -5.4964 -1.3652 -5.7924 -4.0336 c-0.4042 -3.6382 2.8584 -7.9156 5.5436 -10.01 c1.2526 -0.97604 2.9966 -1.731 4.6088 -1.3566 c1.7579 0.40828 3.615 2.4122 2.7336 4.2516 c-0.518 1.0808 -1.7359 1.8652 -2.6944 2.4998 c-1.8309 1.2126 -3.7952 2.2091 -5.7728 3.1553 c-0.0020312 0.0012109 -0.0040624 0.0016016 -0.0060936 0.0024219 c-0.24555 0.55512 -0.44336 1.1086 -0.57916 1.6441 c0.0089844 -0.035078 -0.010195 0.050976 -0.041212 0.1982 c0.2023 0.0069532 0.414 0.011836 0.54736 0.0065236 c1.0209 -0.040392 2.0512 -0.3357 3.0386 -0.7244 c3.5697 -1.4055 6.51 -4.1932 9.0004 -7.0332 c4.7364 -5.4008 8.2648 -11.77 11.37 -18.213 c-6.5452 0.35117 -13.058 1.153 -19.498 2.3983 c-1.6372 0.31652 -4.2812 -3.2038 -2.5867 -3.5314 c7.8488 -1.5177 15.807 -2.4215 23.797 -2.6479 c1.4426 -3.161 2.9359 -6.2912 4.4244 -9.394 c0.83656 -1.7441 4.2276 1.1355 3.5314 2.5867 c-1.067 2.2241 -2.138 4.4636 -3.1932 6.7188 c7.2496 -0.093008 15.285 -0.023242 21.677 3.3421 c0.77984 0.41076 1.9492 1.4863 1.8517 2.4892 z M5.438 29.82 c-0.07914 0.032617 -0.10277 0.1032 -0.092188 0.19621 c0.0016406 -0.0016406 0.0032812 -0.0032812 0.0053124 -0.004922 c0.078712 -0.0616 0.16476 -0.22352 0.086876 -0.19129 z M-0.45648 41.6556 c0.008164 0.0028516 -0.0077736 -0.0791 -0.034297 -0.1868 c-0.0040624 0.10644 0.004922 0.17742 0.034297 0.1868 z M46.422000000000004 31.4236 c1.4312 -1.1066 3.6765 1.3036 2.3566 2.1654 c-5.4088 3.5301 -11.083 7.5848 -17.225 9.7692 c-2.2572 0.80268 -4.578 0.95688 -6.1752 -1.1742 c-2.477 -3.305 0.72968 -8.1584 2.9738 -10.622 c2.0308 -2.2294 5.632 -4.7236 8.3256 -1.9096 c3.8724 4.0456 -5.2372 7.5672 -7.7 8.746 c-0.0061328 0.0028516 -0.013086 0.0044924 -0.019219 0.0073436 c-0.21414 0.49884 -0.39562 1.0115 -0.53632 1.5373 c4.0636 -0.53228 13.954 -5.3924 18 -8.5196 z M61.011 31.0064 c0.44988 0.7554 0.3132 1.6914 -0.64652 1.7848 c-0.72436 0.070548 -1.4104 -0.46252 -1.9203 -1.0584 c-0.91364 -0.00039062 -2.9118 1.5071 -3.4151 1.8922 c-1.0001 0.76476 -1.9186 1.6348 -2.7772 2.5545 c-1.895 2.0304 -3.4877 4.3332 -4.6516 6.856 c-0.81492 1.7661 -4.0932 -1.098 -3.5314 -2.5871 c1.5185 -4.0236 3.1541 -8.0028 4.6212 -12.046 c0.53104 -1.4639 3.0028 0.22758 3.5024 1.7253 c3.1194 -2.3795 6.4552 -3.0905 8.8188 0.87896 z  M93.799 31.1512 c1.4704 -0.69296 3.0733 1.6898 1.3374 2.508 c-3.5452 1.6702 -6.8752 3.732 -10.201 5.7952 c-2.063 1.2795 -4.3592 3.1039 -6.7676 3.6656 c-2.3648 0.55184 -4.5864 -1.7155 -4.224 -4.0576 c0.21004 -1.3562 0.74312 -2.716 1.4255 -4.0456 c-3.8944 2.1532 -7.3556 5.0116 -10.265 8.4988 c-1.1449 1.3725 -3.6635 -1.6584 -3.3519 -2.8796 c0.89244 -3.4983 2.5578 -6.848 4.3232 -9.9848 c0.96296 -1.7118 4.3068 1.2085 3.5314 2.5867 c-0.046912 0.083204 -0.092576 0.16844 -0.13949 0.25246 c3.0676 -2.1059 6.4452 -3.7569 10.037 -4.8808 c1.51 -0.47232 3.7422 1.948 2.8796 3.3519 c-1.1959 1.9464 -2.218 3.9123 -3.2059 5.9076 c4.7528 -2.384 9.9376 -4.5116 14.62 -6.718 z  M136.688 31.2104 c1.173 -1.2485 3.3198 1.041 2.1349 2.3209 c-3.1178 3.3658 -7.5816 6.2832 -11.979 7.6304 c-2.0854 0.63832 -4.1232 1.0115 -5.674 -0.83288 c-1.277 -1.5197 -1.6694 -3.2976 -1.5336 -5.154 c-2.6076 3.7279 -6.4876 8.4412 -11.016 8.1612 c-1.9558 -0.12113 -3.7369 -1.4659 -4.6628 -3.1484 c-0.86064 -1.5642 -0.66528 -3.0301 -0.2166 -4.494 c-3.6761 2.4199 -6.7124 5.9976 -10.885 7.636 c-1.4451 0.56776 -3.3535 -1.7404 -3.059 -3.059 c0.90876 -4.0712 3.1268 -8.2856 6.534 -10.823 c2.6997 -2.0108 6.1944 -1.521 8.1172 1.016 c0.37238 -0.13543 0.75376 -0.25492 1.1461 -0.35648 c0.46376 -0.11949 1.0164 0.084844 1.5287 0.44664 c0.80024 0.52696 1.5373 1.3965 1.5813 2.1132 c0.053008 0.24106 0.0416 0.4576 -0.048944 0.62932 c-0.30058 2.2107 -1.618 4.1916 -1.7269 6.416 c0.13215 0.0048828 0.29774 0.006914 0.40988 -0.0077736 c0.15051 -0.02 0.31894 -0.031016 0.6734 -0.13582 c1.9264 -0.5698 3.5064 -1.9521 4.894 -3.3503 c6.8156 -6.87 10.987 -16.515 14.734 -25.26 c0.0073436 -0.017148 0.016719 -0.031016 0.024453 -0.047344 c2.0544 -5.4548 4.2084 -10.872 6.462 -16.247 c0.7366 -1.7575 4.1604 1.0866 3.5313 2.5867 c-3.0117 7.1836 -5.8532 14.437 -8.5044 21.762 c-1.3032 3.5999 -2.5614 7.216 -3.7749 10.847 c-0.591 1.769 -2.4346 5.4984 -2.227 8.01 c3.6545 -0.75416 10.558 -3.4877 13.537 -6.6584 z M98.9744 33.048 c-0.92344 0.77536 -1.7384 1.7102 -2.4619 2.6716 c-0.026524 0.035078 -0.049764 0.072188 -0.07586 0.10726 c1.7542 -1.4422 3.471 -2.9424 5.3908 -4.096 c-0.020391 -0.0053124 -0.035898 -0.0089844 -0.057108 -0.014688 c-0.26226 0.044452 -0.52492 0.088908 -0.78756 0.13297 c-0.76272 0.17988 -1.4198 0.7048 -2.0084 1.1988 z M106.49 39.62375 c0.010586 0.0016406 0.020742 0.0065236 0.030547 0.0093752 c0.0077344 0.03875 0.076252 0.054648 0.12723 0.054648 c-0.012226 -0.011016 -0.023633 -0.01957 -0.035469 -0.028945 c0.027344 0.0093752 0.055468 0.013438 0.082812 0.021992 c0.010586 -0.008164 -0.017148 -0.022422 -0.10441 -0.03957 c-0.039141 -0.028555 -0.070156 -0.043244 -0.073828 -0.01918 c-0.00039062 0.0028516 0.0028906 0.0044924 0.0028906 0.0069532 c-0.011406 -0.0020312 -0.016719 -0.0032422 -0.029766 -0.0052736 z M170.623 26.835 c1.833 1.7342 1.9334 4.2976 1.0797 6.5284 c-1.5703 4.098 -5.9532 9.4848 -10.764 9.4328 c-0.8296 -0.0089844 -1.8925 -1.0201 -2.4012 -1.9737 c-4.004 6.1688 -7.062 13.07 -9.4188 19.936 c-0.60488 1.762 -4.0596 -1.0336 -3.5318 -2.5867 c3.5926 -10.57 7.1832 -21.142 10.776 -31.712 c0.59792 -1.76 4.06 1.0311 3.5314 2.5867 c-0.46944 1.3819 -0.93892 2.7633 -1.4084 4.1452 c1.5197 -1.961 3.19 -3.7924 5.0664 -5.3864 c2.178 -1.8505 4.61 -3.2989 7.0712 -0.97076 z M167.997 31.1976 c0.19172 -0.44376 0.26387 -0.96744 0.34828 -1.4679 c-0.16152 0.10074 -0.31856 0.20762 -0.46704 0.32754 c-0.39766 0.28469 -0.78104 0.60444 -1.1539 0.92096 c-1.6364 1.39 -3.0945 2.9832 -4.4412 4.652 c-0.91036 1.1282 -1.7759 2.2984 -2.6075 3.4967 c3.6317 -0.41276 7.0264 -4.9308 8.3212 -7.9292 z M227.26600000000002 30.904400000000003 c1.3843 -0.78596 3.3486 1.8407 1.6498 2.8061 c-4.142 2.3526 -8.4024 5.3856 -12.961 6.89 c-2.5647 0.84632 -5.522 -0.3573 -5.8004 -3.3605 c-0.12602 -1.3623 0.39281 -2.7984 0.848 -4.058 c0.32754 -0.90712 0.71012 -1.8097 0.96708 -2.7442 c-5.4908 3.0758 -10.498 7.0796 -14.715 11.744 c-0.50372 0.5576 -1.576 0.041212 -2.021 -0.30793 c-2.6186 -2.0548 -2.5933 -4.554 -1.7841 -7.3172 c-0.5596 0.6204 -1.127 1.2338 -1.7098 1.8318 c-3.504 3.5938 -12.376 11.249 -17.348 5.44 c-1.8493 -2.1605 -0.611 -5.202 0.684 -7.3708 c1.4904 -2.4962 3.854 -5.4924 6.9412 -5.9836 c2.0667 -0.32875 5.1636 1.3986 4.4996 3.8589 c-0.27898 1.0331 -1.3623 1.8309 -2.1752 2.4252 c-1.9839 1.4508 -4.2216 2.561 -6.4308 3.6186 c-0.10644 0.34383 -0.30469 1.0935 -0.48212 1.789 c1.6645 -0.095428 3.3388 -0.86224 4.8884 -1.7836 c4.0348 -2.3991 7.3384 -6.0864 10.239 -9.714 c3.2132 -4.0184 6.0548 -8.3192 8.6696 -12.756 c1.6498 -3.2878 3.4274 -6.5092 5.3108 -9.6688 c0.038359 -0.073828 0.077108 -0.14766 0.11547 -0.22188 c0.041212 -0.079532 0.089336 -0.14641 0.14031 -0.20676 c1.2864 -2.1425 2.6182 -4.2588 4.0044 -6.3396 c0.88424 -1.3272 4.1688 1.6768 3.1724 3.1724 c-1.3513 2.0288 -2.6491 4.0908 -3.9001 6.1808 c-1.7804 3.4372 -3.6341 6.9032 -5.6252 10.299 c-0.35566 0.71868 -0.70764 1.439 -1.0519 2.1638 c-1.5316 3.2262 -2.9473 6.5076 -4.2428 9.836 c-0.569 1.4614 -1.111 2.933 -1.6331 4.4116 c3.4123 -3.1655 7.1916 -5.9024 11.227 -8.264 c2.0145 -1.1788 3.7998 -2.0548 5.7276 -0.24144 c1.5214 1.4312 1.5927 3.367 1.1869 5.2888 c-0.32426 1.536 -1.0352 2.9706 -1.4981 4.4684 c4.3444 -1.554 9.1816 -3.6554 13.108 -5.8856 z M184.47160000000002 32.0148 c0.073008 0.12234 0.62364 -0.24555 0 0 z M176.16000000000003 40.091368 c-0.35078 -0.0044924 -0.27289 0.016289 -0.1134 0.034648 c-0.026094 -0.022422 -0.0077344 -0.036289 0.1134 -0.034648 z M177.07448000000002 41.611 c0.034258 -0.013047 0.035508 -0.060352 0.025312 -0.1191 c-0.017539 0.074648 -0.027344 0.11992 -0.025312 0.1191 z M256.769 31.1512 c1.4704 -0.69296 3.0733 1.6898 1.3374 2.508 c-3.5452 1.6702 -6.8752 3.732 -10.201 5.7952 c-2.063 1.2795 -4.3592 3.1039 -6.7676 3.6656 c-2.3648 0.55184 -4.5864 -1.7155 -4.224 -4.0576 c0.21004 -1.3562 0.74312 -2.716 1.4255 -4.0456 c-3.8944 2.1532 -7.3556 5.0116 -10.265 8.4988 c-1.1449 1.3725 -3.6635 -1.6584 -3.3519 -2.8796 c0.89244 -3.4983 2.5578 -6.848 4.3232 -9.9848 c0.96296 -1.7118 4.3068 1.2085 3.5314 2.5867 c-0.046912 0.083204 -0.092576 0.16844 -0.13949 0.25246 c3.0676 -2.1059 6.4452 -3.7569 10.037 -4.8808 c1.51 -0.47232 3.7422 1.948 2.8796 3.3519 c-1.1959 1.9464 -2.218 3.9123 -3.2059 5.9076 c4.7528 -2.384 9.9376 -4.5116 14.62 -6.718 z  M284.207 31.2532 c1.3024 -1.182 3.6738 1.1376 2.4175 2.2772 c-3.1166 2.8282 -6.34 5.6304 -9.9664 7.7936 c-1.6727 0.99804 -3.679 2.085 -5.7004 1.8485 c-2.0349 -0.23777 -3.7532 -1.9007 -4.3384 -3.8258 c-0.38992 -1.284 -0.20394 -2.4607 0.15211 -3.6129 c-3.6488 2.4191 -6.6744 5.9668 -10.824 7.596 c-1.4451 0.56736 -3.3531 -1.7404 -3.059 -3.059 c0.90876 -4.072 3.1268 -8.2856 6.534 -10.824 c2.6997 -2.0108 6.1944 -1.521 8.1172 1.016 c0.37238 -0.13543 0.75376 -0.25535 1.1461 -0.35652 c0.46376 -0.11992 1.0164 0.084412 1.5287 0.4462 c0.80024 0.5274 1.5376 1.397 1.5813 2.1136 c0.052616 0.2382 0.042032 0.45272 -0.045664 0.62324 c-0.13828 1.0796 -0.498 2.0904 -0.86672 3.1226 c-0.38137 1.0666 -0.55228 2.0606 -0.7554 3.106 c0.052616 -0.0073436 0.10484 -0.018359 0.16031 -0.024883 c4.1044 -0.49028 11.347 -5.9056 13.919 -8.24 z M259.52692 35.8268 c1.7542 -1.4422 3.471 -2.9424 5.3908 -4.096 c-0.020391 -0.0053124 -0.035898 -0.0089844 -0.057108 -0.014688 c-0.26266 0.044452 -0.52532 0.088516 -0.78796 0.13297 c-0.76232 0.17988 -1.4194 0.7048 -2.0079 1.1988 c-0.92344 0.77536 -1.7388 1.7102 -2.462 2.6711 c-0.026524 0.035469 -0.049764 0.072188 -0.07586 0.10766 z M304.69399999999996 25.052 c0.49028 -1.7481 3.9772 0.9972 3.531 2.5867 c-0.86632 3.0909 -2.092 6.0376 -3.7272 8.8024 c-1.2028 2.0332 -2.9897 5.6348 -5.6312 5.966 c-2.5174 0.3157 -4.4936 -2.2433 -4.5888 -4.556 c-0.034258 -0.8288 -0.0073436 -1.6776 0.062384 -2.5349 c-1.149 1.173 -2.2984 2.3461 -3.4474 3.5187 c-1.5727 1.605 -4.0132 4.7456 -6.6548 4.3316 c-2.539 -0.39726 -3.4759 -3.3335 -2.8873 -5.4704 c0.81328 -2.9522 2.6768 -5.7748 4.642 -8.0784 c1.0947 -1.2832 4.316 1.8318 3.1724 3.1724 c-1.1347 1.3305 -2.1364 2.7364 -2.9411 4.2912 c-0.059532 0.11543 -0.14926 0.27898 -0.25285 0.46988 c1.0396 -0.974 1.9708 -2.1144 2.8746 -3.0374 l7.032 -7.1776 c1.277 -1.3032 3.6288 1.629 3.3519 2.88 c-0.39562 1.7893 -0.73376 3.5864 -0.9642 5.4056 c-0.052616 0.41564 -0.33527 1.616 -0.45968 2.6524 c1.5218 -1.3762 3.533 -5.048 3.8385 -5.6104 c1.3113 -2.4166 2.3086 -4.9672 3.0496 -7.6116 z  M339.09099999999995 31.2532 c1.3024 -1.182 3.6738 1.1376 2.4175 2.2772 c-3.1166 2.8282 -6.34 5.6304 -9.9664 7.7936 c-1.6727 0.99804 -3.679 2.085 -5.7004 1.8485 c-2.0349 -0.23777 -3.7532 -1.9007 -4.3384 -3.8258 c-0.38992 -1.284 -0.20394 -2.4607 0.15211 -3.6129 c-3.6488 2.4191 -6.6744 5.9668 -10.824 7.596 c-1.4451 0.56736 -3.3531 -1.7404 -3.059 -3.059 c0.90876 -4.072 3.1268 -8.2856 6.534 -10.824 c2.6997 -2.0108 6.1944 -1.521 8.1172 1.016 c0.37238 -0.13543 0.75376 -0.25535 1.1461 -0.35652 c0.46376 -0.11992 1.0164 0.084412 1.5287 0.4462 c0.80024 0.5274 1.5376 1.397 1.5813 2.1136 c0.052616 0.2382 0.042032 0.45272 -0.045664 0.62324 c-0.13828 1.0796 -0.498 2.0904 -0.86672 3.1226 c-0.38137 1.0666 -0.55228 2.0606 -0.7554 3.106 c0.052616 -0.0073436 0.10484 -0.018359 0.16031 -0.024883 c4.1044 -0.49028 11.347 -5.9056 13.919 -8.24 z M314.41092 35.8268 c1.7542 -1.4422 3.471 -2.9424 5.3908 -4.096 c-0.020391 -0.0053124 -0.035898 -0.0089844 -0.057108 -0.014688 c-0.26266 0.044452 -0.52532 0.088516 -0.78796 0.13297 c-0.76232 0.17988 -1.4194 0.7048 -2.0079 1.1988 c-0.92344 0.77536 -1.7388 1.7102 -2.462 2.6711 c-0.026524 0.035469 -0.049764 0.072188 -0.07586 0.10766 z"></path>
    </g>
</svg>